<svg width="157" height="32" viewBox="0 0 157 32" fill="none" xmlns="http://www.w3.org/2000/svg">
<path d="M7.5205 26.1764C6.55143 25.1946 6.55143 23.6025 7.5205 22.6207L9.25163 20.8666L14.5168 26.3578L11.2232 27.2119L7.5205 26.1764Z" fill="url(#paint0_linear_8_1980)"/>
<path d="M0.454364 19.2081C-0.151455 18.5942 -0.151455 17.5988 0.454364 16.985L2.89466 14.5124L7.9312 19.6155L0.454364 19.2081Z" fill="url(#paint1_linear_8_1980)"/>
<path d="M32.2487 17.8412L19.0259 31.2389C18.0209 32.2537 16.3962 32.2537 15.3916 31.2389L2.16874 17.8412C1.16714 16.823 1.16714 15.1767 2.16874 14.1588L15.3916 0.761128C16.3965 -0.253709 18.0212 -0.253709 19.0259 0.761128L32.2487 14.1588C33.2503 15.1767 33.2503 16.823 32.2487 17.8412Z" fill="url(#paint2_linear_8_1980)"/>
<path opacity="0.28" d="M31.4231 14.2545C28.911 15.4844 25.1232 15.9833 19.7368 13.5471C12.9312 10.473 6.46169 12.7241 2.28571 15.104C2.37386 14.9321 2.48785 14.7701 2.63163 14.6248L15.8511 1.22706C16.2132 0.863323 16.6962 0.661896 17.2084 0.661896C17.7206 0.661896 18.2033 0.863631 18.5656 1.23045L31.4231 14.2545Z" fill="url(#paint3_linear_8_1980)"/>
<g opacity="0.44">
<path d="M26.5029 17.3286L24.5812 24.6043L23.4784 22.7302L20.066 26.1911C19.2699 26.9944 18.3923 27.6886 17.4494 28.2571C16.2225 29.0009 14.8492 29.3413 13.4886 29.3117L11.1884 26.9811C13.7102 26.8388 16.0559 25.7812 17.857 23.9566L21.3347 20.4363L19.1814 19.1307L26.5029 17.3286Z" fill="url(#paint4_linear_8_1980)"/>
<path d="M22.6445 8.66818L20.3868 17.2165L19.0883 15.015L15.0786 19.0743C14.201 19.9635 13.2353 20.7372 12.2075 21.3818C10.5959 22.3899 8.77233 22.8232 6.97767 22.7139L4.3252 20.0263C7.39198 19.9306 10.312 18.6579 12.4878 16.453L16.5659 12.3176L14.0408 10.7872L22.6445 8.66818Z" fill="url(#paint5_linear_8_1980)"/>
</g>
<path d="M25.8528 16.5042L23.9311 23.7799L22.8252 21.9058L19.4128 25.3633C18.6173 26.1694 17.7394 26.8611 16.7983 27.4312C13.8136 29.2388 9.97959 28.6678 7.52106 26.1764H9.94494C12.6886 26.1764 15.266 25.0954 17.2072 23.1285L20.6816 19.6113L18.5316 18.3057L25.8528 16.5042Z" fill="url(#paint6_linear_8_1980)"/>
<path d="M21.9934 7.84L19.7358 16.3917L18.4342 14.1868L14.4245 18.2495C13.5469 19.1387 12.5839 19.9102 11.5544 20.5558C8.00699 22.7807 3.40453 22.1971 0.454468 19.208H3.3027C6.50293 19.208 9.57215 17.92 11.8349 15.627L15.9152 11.4925L13.3901 9.96207L21.9934 7.84Z" fill="url(#paint7_linear_8_1980)"/>
<g opacity="0.5">
<path opacity="0.78" d="M25.3939 16.9555L24.0923 21.8874C23.1233 21.1602 22.0533 20.4792 20.8918 19.8645L21.2082 19.5472L19.3813 18.4366L25.3939 16.9555Z" fill="url(#paint8_linear_8_1980)"/>
<path opacity="0.78" d="M21.5343 8.29463L19.6192 15.5503L18.497 13.6528L14.742 17.4608C13.848 17.2163 12.9282 17.0081 11.9852 16.8359C11.708 16.7863 11.4305 16.7401 11.1566 16.697C11.4697 16.4358 11.7734 16.1549 12.0637 15.8608L16.4418 11.4278L14.2395 10.0924L21.5343 8.29463Z" fill="url(#paint9_linear_8_1980)"/>
</g>
<path d="M37.7277 25.02H39.8277V8.04H37.7277V6.06H46.7877V8.04H44.6877V15.15H52.6677V8.04H50.5677V6.06H59.6277V8.04H57.5277V25.02H59.6277V27H50.5677V25.02H52.6677V17.31H44.6877V25.02H46.7877V27H37.7277V25.02ZM69.5734 25.2C71.4134 25.2 72.3334 24.1 72.3334 21.9V16.38C72.3334 14.18 71.4134 13.08 69.5734 13.08C67.7334 13.08 66.8134 14.18 66.8134 16.38V21.9C66.8134 24.1 67.7334 25.2 69.5734 25.2ZM69.5734 27.36C68.4334 27.36 67.3934 27.18 66.4534 26.82C65.5334 26.44 64.7334 25.9 64.0534 25.2C63.3934 24.5 62.8834 23.64 62.5234 22.62C62.1634 21.6 61.9834 20.44 61.9834 19.14C61.9834 17.84 62.1634 16.68 62.5234 15.66C62.8834 14.64 63.3934 13.78 64.0534 13.08C64.7334 12.38 65.5334 11.85 66.4534 11.49C67.3934 11.11 68.4334 10.92 69.5734 10.92C70.7134 10.92 71.7434 11.11 72.6634 11.49C73.6034 11.85 74.4034 12.38 75.0634 13.08C75.7434 13.78 76.2634 14.64 76.6234 15.66C76.9834 16.68 77.1634 17.84 77.1634 19.14C77.1634 20.44 76.9834 21.6 76.6234 22.62C76.2634 23.64 75.7434 24.5 75.0634 25.2C74.4034 25.9 73.6034 26.44 72.6634 26.82C71.7434 27.18 70.7134 27.36 69.5734 27.36ZM79.4143 25.02H81.2143V14.31L79.4143 13.92V12.21L85.6843 10.92V13.89H85.8043C86.0843 13.05 86.5343 12.35 87.1543 11.79C87.7743 11.21 88.5843 10.92 89.5843 10.92C90.5643 10.92 91.3343 11.19 91.8943 11.73C92.4543 12.25 92.7343 12.97 92.7343 13.89C92.7343 14.69 92.5243 15.32 92.1043 15.78C91.6843 16.24 91.0943 16.47 90.3343 16.47C89.6143 16.47 89.0643 16.28 88.6843 15.9C88.3043 15.5 88.1143 15.03 88.1143 14.49C88.1143 14.25 88.1643 14.03 88.2643 13.83C88.3643 13.63 88.4843 13.5 88.6243 13.44L88.5943 13.29C88.5343 13.27 88.4443 13.26 88.3243 13.26C88.0043 13.26 87.6943 13.35 87.3943 13.53C87.0943 13.71 86.8243 13.94 86.5843 14.22C86.3443 14.5 86.1443 14.81 85.9843 15.15C85.8443 15.49 85.7743 15.82 85.7743 16.14V25.02H88.1743V27H79.4143V25.02ZM98.2592 9.21C97.4192 9.21 96.7592 8.98 96.2792 8.52C95.8192 8.06 95.5892 7.44 95.5892 6.66V6.51C95.5892 5.73 95.8192 5.11 96.2792 4.65C96.7592 4.19 97.4192 3.96 98.2592 3.96C99.0992 3.96 99.7492 4.19 100.209 4.65C100.689 5.11 100.929 5.73 100.929 6.51V6.66C100.929 7.44 100.689 8.06 100.209 8.52C99.7492 8.98 99.0992 9.21 98.2592 9.21ZM94.2092 25.02H96.0092V14.31L94.2092 13.92V12.21L100.569 10.92V25.02H102.369V27H94.2092V25.02ZM104.078 25.14L112.058 13.38H107.258V15.96H104.318V11.28H117.398V13.26L109.418 24.9H114.698V22.32H117.638V27H104.078V25.14ZM126.907 25.2C128.747 25.2 129.667 24.1 129.667 21.9V16.38C129.667 14.18 128.747 13.08 126.907 13.08C125.067 13.08 124.147 14.18 124.147 16.38V21.9C124.147 24.1 125.067 25.2 126.907 25.2ZM126.907 27.36C125.767 27.36 124.727 27.18 123.787 26.82C122.867 26.44 122.067 25.9 121.387 25.2C120.727 24.5 120.217 23.64 119.857 22.62C119.497 21.6 119.317 20.44 119.317 19.14C119.317 17.84 119.497 16.68 119.857 15.66C120.217 14.64 120.727 13.78 121.387 13.08C122.067 12.38 122.867 11.85 123.787 11.49C124.727 11.11 125.767 10.92 126.907 10.92C128.047 10.92 129.077 11.11 129.997 11.49C130.937 11.85 131.737 12.38 132.397 13.08C133.077 13.78 133.597 14.64 133.957 15.66C134.317 16.68 134.497 17.84 134.497 19.14C134.497 20.44 134.317 21.6 133.957 22.62C133.597 23.64 133.077 24.5 132.397 25.2C131.737 25.9 130.937 26.44 129.997 26.82C129.077 27.18 128.047 27.36 126.907 27.36ZM136.748 25.02H138.548V14.31L136.748 13.92V12.21L143.018 10.92V13.89H143.168C143.448 13.09 143.948 12.4 144.668 11.82C145.388 11.22 146.378 10.92 147.638 10.92C149.558 10.92 150.908 11.41 151.688 12.39C152.488 13.35 152.888 14.8 152.888 16.74V25.02H154.688V27H146.678V25.02H148.328V16.89C148.328 15.83 148.138 15.08 147.758 14.64C147.398 14.18 146.778 13.95 145.898 13.95C145.558 13.95 145.218 14 144.878 14.1C144.538 14.18 144.238 14.32 143.978 14.52C143.718 14.7 143.508 14.94 143.348 15.24C143.188 15.52 143.108 15.87 143.108 16.29V25.02H144.758V27H136.748V25.02Z" fill="#00214F"/>
<defs>
<linearGradient id="paint0_linear_8_1980" x1="6.79367" y1="24.0391" x2="14.5168" y2="24.0391" gradientUnits="userSpaceOnUse">
<stop stop-color="#B0D1FF"/>
<stop offset="1" stop-color="#4F93FF"/>
</linearGradient>
<linearGradient id="paint1_linear_8_1980" x1="-0.000106391" y1="17.064" x2="7.93108" y2="17.064" gradientUnits="userSpaceOnUse">
<stop stop-color="#B0D1FF"/>
<stop offset="1" stop-color="#4F93FF"/>
</linearGradient>
<linearGradient id="paint2_linear_8_1980" x1="17.0874" y1="28.9622" x2="17.4224" y2="-5.91041" gradientUnits="userSpaceOnUse">
<stop stop-color="#0058D4"/>
<stop offset="1" stop-color="#00245B"/>
</linearGradient>
<linearGradient id="paint3_linear_8_1980" x1="16.9431" y1="7.10729" x2="16.8314" y2="16.4181" gradientUnits="userSpaceOnUse">
<stop/>
<stop offset="1" stop-color="#B0D1FF"/>
</linearGradient>
<linearGradient id="paint4_linear_8_1980" x1="11.189" y1="23.3211" x2="26.5031" y2="23.3211" gradientUnits="userSpaceOnUse">
<stop stop-color="#001334"/>
<stop offset="1" stop-color="#00245B"/>
</linearGradient>
<linearGradient id="paint5_linear_8_1980" x1="4.32556" y1="15.6991" x2="22.6443" y2="15.6991" gradientUnits="userSpaceOnUse">
<stop stop-color="#001334"/>
<stop offset="1" stop-color="#00245B"/>
</linearGradient>
<linearGradient id="paint6_linear_8_1980" x1="7.52103" y1="22.496" x2="25.8529" y2="22.496" gradientUnits="userSpaceOnUse">
<stop stop-color="#0065FF"/>
<stop offset="1" stop-color="#00C4F7"/>
</linearGradient>
<linearGradient id="paint7_linear_8_1980" x1="0.454711" y1="14.872" x2="21.9935" y2="14.872" gradientUnits="userSpaceOnUse">
<stop stop-color="#0065FF"/>
<stop offset="1" stop-color="#00C4F7"/>
</linearGradient>
<linearGradient id="paint8_linear_8_1980" x1="23.494" y1="17.2036" x2="19.8911" y2="23.1118" gradientUnits="userSpaceOnUse">
<stop/>
<stop offset="1" stop-color="#B0D1FF"/>
</linearGradient>
<linearGradient id="paint9_linear_8_1980" x1="16.5231" y1="13.351" x2="12.2675" y2="18.7511" gradientUnits="userSpaceOnUse">
<stop/>
<stop offset="1" stop-color="#B0D1FF"/>
</linearGradient>
</defs>
</svg>
